Coordinates
version=1
nRows=27
nColumns=12
inDegrees=yes

Units are S.I. units (second, meters, Newtons, ...)
Angles are in degrees

endheader
time	SC_y	SC_z	SC_x	AC_y	AC_z	AC_x	GH_y	GH_z	GH_yy	EL_x	PS_y
       0.0              -15.09          6.821          84.15          34.88         -18.13          -10.4          2.188         0.9608         -108.4          74.62          84.27
   0.01051              -15.09          6.824          84.15          34.88         -18.13          -10.4          2.162         0.9602         -108.4          74.62          84.28
   0.02102              -15.09          6.826          84.14          34.88         -18.13          -10.4          2.135         0.9595         -108.4          74.62          84.29
   0.03153              -15.09          6.829          84.13          34.88         -18.13          -10.4          2.106         0.9587         -108.4          74.62           84.3
   0.04204              -15.09          6.832          84.12          34.88         -18.12          -10.4          2.075         0.9579         -108.4          74.62          84.31
   0.05255               -15.1          6.835          84.11          34.88         -18.12          -10.4          2.042         0.9571         -108.4          74.62          84.32
   0.06306               -15.1          6.838           84.1          34.88         -18.12         -10.41          2.007         0.9562         -108.4          74.62          84.33
   0.07356               -15.1          6.842          84.09          34.88         -18.11         -10.41           1.97         0.9552         -108.4          74.61          84.34
   0.08407              -15.11          6.845          84.08          34.88         -18.11         -10.41          1.929         0.9542         -108.4          74.61          84.36
   0.09458              -15.11          6.849          84.07          34.88          -18.1         -10.41          1.886         0.9531         -108.4          74.61          84.37
    0.1051              -15.11          6.854          84.05          34.88          -18.1         -10.41           1.84         0.9519         -108.4          74.61          84.39
    0.1156              -15.12          6.858          84.04          34.88         -18.09         -10.41           1.79         0.9507         -108.4          74.61           84.4
    0.1261              -15.12          6.863          84.03          34.88         -18.09         -10.41          1.737         0.9493         -108.4           74.6          84.42
    0.1366              -15.13          6.869          84.01          34.88         -18.08         -10.42          1.679         0.9478         -108.4           74.6          84.44
    0.1471              -15.13          6.875          83.99          34.88         -18.08         -10.42          1.616         0.9462         -108.4           74.6          84.46
    0.1576              -15.14          6.881          83.97          34.88         -18.07         -10.42          1.548         0.9444         -108.4           74.6          84.48
    0.1681              -15.14          6.888          83.95          34.88         -18.06         -10.42          1.474         0.9426         -108.4          74.59          84.51
    0.1787              -15.15          6.896          83.93          34.88         -18.06         -10.43          1.394         0.9405         -108.4          74.59          84.53
    0.1892              -15.15          6.904           83.9          34.88         -18.05         -10.43          1.306         0.9382         -108.4          74.59          84.56
    0.1997              -15.16          6.913          83.87          34.88         -18.04         -10.43          1.209         0.9358         -108.4          74.58          84.59
    0.2102              -15.17          6.923          83.84          34.87         -18.03         -10.44          1.104         0.9331         -108.4          74.58          84.63
    0.2207              -15.18          6.934          83.81          34.87         -18.02         -10.44         0.9872         0.9301         -108.4          74.57          84.67
    0.2312              -15.19          6.946          83.77          34.87          -18.0         -10.44         0.8587         0.9268         -108.4          74.57          84.71
    0.2417               -15.2          6.959          83.73          34.87         -17.99         -10.45         0.7163         0.9232         -108.4          74.56          84.75
    0.2522              -15.21          6.974          83.69          34.87         -17.97         -10.45          0.558         0.9191         -108.4          74.55          84.81
    0.2627              -15.23          6.991          83.64          34.87         -17.96         -10.46         0.3813         0.9146         -108.4          74.55          84.86
    0.2732              -15.24          7.009          83.58          34.87         -17.94         -10.47         0.1834         0.9095         -108.5          74.54          84.93
